# xmcd
#
# Track frame offsets: 
#        150
#        11968
#        26258
#        41476
#        53162
#        70315
#        87588
#        108028
#        119324
#        134350
#
# Disc length: 2028 seconds
#
# Revision: 1
# Processed by: cddbd v1.5.2PL0 Copyright (c) Steve Scherf et al.
# Submitted via: ExactAudioCopyFreeDBPlugin 1.0
#
DISCID=8107ea0a
DTITLE=The Great Recession Orchestra - Have You Ever Even Heard of Mil
DTITLE=ton Brown?
DYEAR=2010
DGENRE=Western Swing
TTITLE0=Chinese Honeymoon
TTITLE1=Sadie Green
TTITLE2=Corrine Corinna
TTITLE3=Somebody's Been Using That Thing
TTITLE4=Fan It
TTITLE5=I'll Be Glad When You're Dead
TTITLE6=Yes Sir
TTITLE7=You're Bound To Look Like A Monkey
TTITLE8=Sitting On Top Of The World
TTITLE9=Harvest Moon
EXTD=
EXTT0=
EXTT1=
EXTT2=
EXTT3=
EXTT4=
EXTT5=
EXTT6=
EXTT7=
EXTT8=
EXTT9=
PLAYORDER=
